<mxfile host="Electron" modified="2024-06-28T16:27:23.144Z" agent="Mozilla/5.0 (X11; Linux x86_64) AppleWebKit/537.36 (KHTML, like Gecko) draw.io/24.6.4 Chrome/124.0.6367.207 Electron/30.0.6 Safari/537.36" etag="aPnDfDaIzluyIvLqIfmP" version="24.6.4" type="device">
  <diagram name="Page-1" id="5d7acffa-a066-3a61-03fe-96351882024d">
    <mxGraphModel dx="1434" dy="843" grid="1" gridSize="10" guides="1" tooltips="1" connect="1" arrows="1" fold="1" page="1" pageScale="1" pageWidth="1100" pageHeight="850" background="#ffffff" math="0" shadow="0">
      <root>
        <mxCell id="0" />
        <mxCell id="1" parent="0" />
        <mxCell id="h8j7d9lZvAG6Qlfk2w60-1" value="" style="edgeStyle=orthogonalEdgeStyle;rounded=0;orthogonalLoop=1;jettySize=auto;html=1;" parent="1" source="2debaab0fafb2da2-10" target="21ea969265ad0168-30" edge="1">
          <mxGeometry relative="1" as="geometry" />
        </mxCell>
        <mxCell id="2debaab0fafb2da2-10" value="TaskObject" style="html=1;rounded=0;shadow=0;comic=0;labelBackgroundColor=none;strokeWidth=2;fontFamily=Verdana;fontSize=12;align=center;shape=mxgraph.ios7ui.horLines;" parent="1" vertex="1">
          <mxGeometry x="42.5" y="450" width="135" height="50" as="geometry" />
        </mxCell>
        <mxCell id="21ea969265ad0168-14" value="class TaskObject" style="swimlane;html=1;fontStyle=0;childLayout=stackLayout;horizontal=1;startSize=26;fillColor=#e0e0e0;horizontalStack=0;resizeParent=1;resizeLast=0;collapsible=1;marginBottom=0;swimlaneFillColor=#ffffff;align=center;rounded=1;shadow=0;comic=0;labelBackgroundColor=none;strokeWidth=1;fontFamily=Verdana;fontSize=12" parent="1" vertex="1">
          <mxGeometry x="30" y="180" width="160" height="206" as="geometry" />
        </mxCell>
        <mxCell id="h8j7d9lZvAG6Qlfk2w60-18" value="priority (string)" style="text;html=1;strokeColor=none;fillColor=none;spacingLeft=4;spacingRight=4;whiteSpace=wrap;overflow=hidden;rotatable=0;points=[[0,0.5],[1,0.5]];portConstraint=eastwest;" parent="21ea969265ad0168-14" vertex="1">
          <mxGeometry y="26" width="160" height="26" as="geometry" />
        </mxCell>
        <mxCell id="h8j7d9lZvAG6Qlfk2w60-17" value="dueDate (date)" style="text;html=1;strokeColor=none;fillColor=none;spacingLeft=4;spacingRight=4;whiteSpace=wrap;overflow=hidden;rotatable=0;points=[[0,0.5],[1,0.5]];portConstraint=eastwest;" parent="21ea969265ad0168-14" vertex="1">
          <mxGeometry y="52" width="160" height="26" as="geometry" />
        </mxCell>
        <mxCell id="h8j7d9lZvAG6Qlfk2w60-12" value="description (string)" style="text;html=1;strokeColor=none;fillColor=none;spacingLeft=4;spacingRight=4;whiteSpace=wrap;overflow=hidden;rotatable=0;points=[[0,0.5],[1,0.5]];portConstraint=eastwest;" parent="21ea969265ad0168-14" vertex="1">
          <mxGeometry y="78" width="160" height="26" as="geometry" />
        </mxCell>
        <mxCell id="21ea969265ad0168-17" value="taskComplete (bool)" style="text;html=1;strokeColor=none;fillColor=none;spacingLeft=4;spacingRight=4;whiteSpace=wrap;overflow=hidden;rotatable=0;points=[[0,0.5],[1,0.5]];portConstraint=eastwest;" parent="21ea969265ad0168-14" vertex="1">
          <mxGeometry y="104" width="160" height="26" as="geometry" />
        </mxCell>
        <mxCell id="21ea969265ad0168-16" value="taskName (string)" style="text;html=1;strokeColor=none;fillColor=none;spacingLeft=4;spacingRight=4;whiteSpace=wrap;overflow=hidden;rotatable=0;points=[[0,0.5],[1,0.5]];portConstraint=eastwest;" parent="21ea969265ad0168-14" vertex="1">
          <mxGeometry y="130" width="160" height="26" as="geometry" />
        </mxCell>
        <mxCell id="OECzW251QmUKb57PSqsv-10" value="parent Project (string, inferred from active page)" style="text;html=1;strokeColor=none;fillColor=none;spacingLeft=4;spacingRight=4;whiteSpace=wrap;overflow=hidden;rotatable=0;points=[[0,0.5],[1,0.5]];portConstraint=eastwest;" parent="21ea969265ad0168-14" vertex="1">
          <mxGeometry y="156" width="160" height="34" as="geometry" />
        </mxCell>
        <mxCell id="g6cFerPWCfS_38igkbu9-1" style="edgeStyle=orthogonalEdgeStyle;rounded=0;orthogonalLoop=1;jettySize=auto;html=1;entryX=0.25;entryY=1;entryDx=0;entryDy=0;" parent="1" source="21ea969265ad0168-30" target="8JXVpkGtq3ozPLFijZap-2" edge="1">
          <mxGeometry relative="1" as="geometry" />
        </mxCell>
        <mxCell id="21ea969265ad0168-30" value="&lt;div&gt;&lt;span style=&quot;background-color: initial;&quot;&gt;Array of TaskObjects&lt;/span&gt;&lt;br&gt;&lt;/div&gt;" style="html=1;rounded=0;shadow=0;comic=0;labelBackgroundColor=none;strokeWidth=2;fontFamily=Verdana;fontSize=12;align=center;shape=mxgraph.ios7ui.horLines;" parent="1" vertex="1">
          <mxGeometry x="42.5" y="620" width="135" height="50" as="geometry" />
        </mxCell>
        <mxCell id="21ea969265ad0168-32" style="edgeStyle=none;html=1;labelBackgroundColor=none;startFill=0;startSize=8;endFill=1;endSize=8;fontFamily=Verdana;fontSize=12;" parent="1" source="21ea969265ad0168-14" target="2debaab0fafb2da2-10" edge="1">
          <mxGeometry relative="1" as="geometry" />
        </mxCell>
        <mxCell id="h8j7d9lZvAG6Qlfk2w60-2" value="Project Overview&lt;span style=&quot;background-color: initial;&quot;&gt;&amp;nbsp;Page&lt;/span&gt;" style="swimlane;whiteSpace=wrap;html=1;" parent="1" vertex="1">
          <mxGeometry x="290" y="80" width="200" height="200" as="geometry" />
        </mxCell>
        <mxCell id="h8j7d9lZvAG6Qlfk2w60-4" value="Project" style="rounded=0;whiteSpace=wrap;html=1;" parent="h8j7d9lZvAG6Qlfk2w60-2" vertex="1">
          <mxGeometry x="10" y="32" width="50" height="28" as="geometry" />
        </mxCell>
        <mxCell id="h8j7d9lZvAG6Qlfk2w60-7" value="Project" style="rounded=0;whiteSpace=wrap;html=1;" parent="h8j7d9lZvAG6Qlfk2w60-2" vertex="1">
          <mxGeometry x="75" y="32" width="50" height="28" as="geometry" />
        </mxCell>
        <mxCell id="h8j7d9lZvAG6Qlfk2w60-8" value="Project" style="rounded=0;whiteSpace=wrap;html=1;" parent="h8j7d9lZvAG6Qlfk2w60-2" vertex="1">
          <mxGeometry x="140" y="32" width="50" height="28" as="geometry" />
        </mxCell>
        <mxCell id="h8j7d9lZvAG6Qlfk2w60-9" value="Project" style="rounded=0;whiteSpace=wrap;html=1;" parent="h8j7d9lZvAG6Qlfk2w60-2" vertex="1">
          <mxGeometry x="10" y="70" width="50" height="28" as="geometry" />
        </mxCell>
        <mxCell id="OECzW251QmUKb57PSqsv-27" value="" style="edgeStyle=orthogonalEdgeStyle;rounded=0;orthogonalLoop=1;jettySize=auto;html=1;entryX=0.157;entryY=0.408;entryDx=0;entryDy=0;entryPerimeter=0;exitX=0.5;exitY=1;exitDx=0;exitDy=0;" parent="h8j7d9lZvAG6Qlfk2w60-2" source="h8j7d9lZvAG6Qlfk2w60-10" target="OECzW251QmUKb57PSqsv-26" edge="1">
          <mxGeometry relative="1" as="geometry">
            <Array as="points">
              <mxPoint x="100" y="110" />
              <mxPoint x="103" y="110" />
            </Array>
          </mxGeometry>
        </mxCell>
        <mxCell id="h8j7d9lZvAG6Qlfk2w60-10" value="Project" style="rounded=0;whiteSpace=wrap;html=1;" parent="h8j7d9lZvAG6Qlfk2w60-2" vertex="1">
          <mxGeometry x="75" y="70" width="50" height="28" as="geometry" />
        </mxCell>
        <mxCell id="OECzW251QmUKb57PSqsv-26" value="click" style="shape=parallelogram;perimeter=parallelogramPerimeter;whiteSpace=wrap;html=1;fixedSize=1;" parent="h8j7d9lZvAG6Qlfk2w60-2" vertex="1">
          <mxGeometry x="90" y="130" width="80" height="20" as="geometry" />
        </mxCell>
        <mxCell id="h8j7d9lZvAG6Qlfk2w60-20" value="Project Task List" style="swimlane;whiteSpace=wrap;html=1;" parent="1" vertex="1">
          <mxGeometry x="690" y="70" width="220" height="210" as="geometry" />
        </mxCell>
        <mxCell id="h8j7d9lZvAG6Qlfk2w60-22" value="Task" style="rounded=0;whiteSpace=wrap;html=1;" parent="h8j7d9lZvAG6Qlfk2w60-20" vertex="1">
          <mxGeometry x="20" y="60" width="160" height="20" as="geometry" />
        </mxCell>
        <mxCell id="h8j7d9lZvAG6Qlfk2w60-27" value="Task" style="rounded=0;whiteSpace=wrap;html=1;" parent="h8j7d9lZvAG6Qlfk2w60-20" vertex="1">
          <mxGeometry x="20" y="90" width="160" height="20" as="geometry" />
        </mxCell>
        <mxCell id="h8j7d9lZvAG6Qlfk2w60-28" value="Expanded Task" style="rounded=0;whiteSpace=wrap;html=1;" parent="h8j7d9lZvAG6Qlfk2w60-20" vertex="1">
          <mxGeometry x="20" y="120" width="160" height="40" as="geometry" />
        </mxCell>
        <mxCell id="OECzW251QmUKb57PSqsv-4" value="&lt;div&gt;&lt;span style=&quot;background-color: initial;&quot;&gt;(+) button&lt;/span&gt;&lt;br&gt;&lt;/div&gt;" style="shape=parallelogram;perimeter=parallelogramPerimeter;whiteSpace=wrap;html=1;fixedSize=1;" parent="h8j7d9lZvAG6Qlfk2w60-20" vertex="1">
          <mxGeometry x="120" y="170" width="80" height="30" as="geometry" />
        </mxCell>
        <mxCell id="8JXVpkGtq3ozPLFijZap-7" value="back" style="shape=parallelogram;perimeter=parallelogramPerimeter;whiteSpace=wrap;html=1;fixedSize=1;" parent="h8j7d9lZvAG6Qlfk2w60-20" vertex="1">
          <mxGeometry x="10" y="30" width="60" height="20" as="geometry" />
        </mxCell>
        <mxCell id="OECzW251QmUKb57PSqsv-5" style="edgeStyle=orthogonalEdgeStyle;rounded=0;orthogonalLoop=1;jettySize=auto;html=1;entryX=0.5;entryY=0;entryDx=0;entryDy=0;" parent="1" source="OECzW251QmUKb57PSqsv-4" target="21ea969265ad0168-14" edge="1">
          <mxGeometry relative="1" as="geometry">
            <mxPoint x="240" y="200" as="targetPoint" />
            <Array as="points">
              <mxPoint x="951" y="250" />
              <mxPoint x="951" y="20" />
              <mxPoint x="110" y="20" />
            </Array>
          </mxGeometry>
        </mxCell>
        <mxCell id="HVfkcYdauQG6CCqCgE7G-2" value="" style="edgeStyle=orthogonalEdgeStyle;rounded=0;orthogonalLoop=1;jettySize=auto;html=1;exitX=0.493;exitY=1;exitDx=0;exitDy=0;exitPerimeter=0;" parent="1" source="21ea969265ad0168-30" target="HVfkcYdauQG6CCqCgE7G-1" edge="1">
          <mxGeometry relative="1" as="geometry">
            <mxPoint x="110" y="730" as="sourcePoint" />
          </mxGeometry>
        </mxCell>
        <mxCell id="OECzW251QmUKb57PSqsv-19" style="edgeStyle=orthogonalEdgeStyle;rounded=0;orthogonalLoop=1;jettySize=auto;html=1;" parent="1" source="OECzW251QmUKb57PSqsv-7" target="OECzW251QmUKb57PSqsv-29" edge="1">
          <mxGeometry relative="1" as="geometry">
            <mxPoint x="1000" y="390" as="targetPoint" />
            <Array as="points">
              <mxPoint x="1000" y="319" />
              <mxPoint x="1001" y="319" />
              <mxPoint x="1001" y="390" />
              <mxPoint x="1000" y="390" />
            </Array>
          </mxGeometry>
        </mxCell>
        <mxCell id="OECzW251QmUKb57PSqsv-7" value="click" style="shape=parallelogram;perimeter=parallelogramPerimeter;whiteSpace=wrap;html=1;fixedSize=1;" parent="1" vertex="1">
          <mxGeometry x="960" y="220" width="80" height="28" as="geometry" />
        </mxCell>
        <mxCell id="OECzW251QmUKb57PSqsv-20" style="edgeStyle=orthogonalEdgeStyle;rounded=0;orthogonalLoop=1;jettySize=auto;html=1;entryX=0.5;entryY=0;entryDx=0;entryDy=0;exitX=1.002;exitY=0.38;exitDx=0;exitDy=0;exitPerimeter=0;" parent="1" source="h8j7d9lZvAG6Qlfk2w60-27" target="OECzW251QmUKb57PSqsv-7" edge="1">
          <mxGeometry relative="1" as="geometry">
            <mxPoint x="1000" y="190" as="targetPoint" />
            <mxPoint x="870" y="150" as="sourcePoint" />
            <Array as="points">
              <mxPoint x="874" y="168" />
              <mxPoint x="1000" y="168" />
            </Array>
          </mxGeometry>
        </mxCell>
        <mxCell id="OECzW251QmUKb57PSqsv-29" value="expand task" style="shape=process;whiteSpace=wrap;html=1;backgroundOutline=1;" parent="1" vertex="1">
          <mxGeometry x="940" y="350" width="120" height="60" as="geometry" />
        </mxCell>
        <mxCell id="OECzW251QmUKb57PSqsv-32" value="" style="rounded=0;whiteSpace=wrap;html=1;" parent="1" vertex="1">
          <mxGeometry x="590" y="440" width="410" height="130" as="geometry" />
        </mxCell>
        <mxCell id="OECzW251QmUKb57PSqsv-33" value="date&lt;div&gt;(selector)&lt;/div&gt;" style="shape=parallelogram;perimeter=parallelogramPerimeter;whiteSpace=wrap;html=1;fixedSize=1;" parent="1" vertex="1">
          <mxGeometry x="900" y="450" width="90" height="30" as="geometry" />
        </mxCell>
        <mxCell id="OECzW251QmUKb57PSqsv-34" value="done?&lt;div&gt;(tickbox)&lt;/div&gt;" style="shape=parallelogram;perimeter=parallelogramPerimeter;whiteSpace=wrap;html=1;fixedSize=1;" parent="1" vertex="1">
          <mxGeometry x="610" y="450" width="80" height="30" as="geometry" />
        </mxCell>
        <mxCell id="OECzW251QmUKb57PSqsv-35" value="notes" style="shape=parallelogram;perimeter=parallelogramPerimeter;whiteSpace=wrap;html=1;fixedSize=1;" parent="1" vertex="1">
          <mxGeometry x="600" y="490" width="280" height="50" as="geometry" />
        </mxCell>
        <mxCell id="OECzW251QmUKb57PSqsv-36" value="priority&lt;div&gt;(dropdown)&lt;/div&gt;" style="shape=parallelogram;perimeter=parallelogramPerimeter;whiteSpace=wrap;html=1;fixedSize=1;" parent="1" vertex="1">
          <mxGeometry x="890" y="490" width="100" height="30" as="geometry" />
        </mxCell>
        <mxCell id="OECzW251QmUKb57PSqsv-37" value="Task Name" style="rounded=0;whiteSpace=wrap;html=1;" parent="1" vertex="1">
          <mxGeometry x="705" y="450" width="190" height="20" as="geometry" />
        </mxCell>
        <mxCell id="FBmgkDNcMDZdSpvH3nb6-1" value="delete&lt;div&gt;(button)&lt;/div&gt;" style="shape=parallelogram;perimeter=parallelogramPerimeter;whiteSpace=wrap;html=1;fixedSize=1;" parent="1" vertex="1">
          <mxGeometry x="890" y="530" width="100" height="30" as="geometry" />
        </mxCell>
        <mxCell id="8JXVpkGtq3ozPLFijZap-5" value="" style="edgeStyle=orthogonalEdgeStyle;rounded=0;orthogonalLoop=1;jettySize=auto;html=1;exitX=1.011;exitY=0.819;exitDx=0;exitDy=0;exitPerimeter=0;" parent="1" source="8JXVpkGtq3ozPLFijZap-2" edge="1">
          <mxGeometry relative="1" as="geometry">
            <mxPoint x="660" y="220" as="sourcePoint" />
            <mxPoint x="690" y="220" as="targetPoint" />
          </mxGeometry>
        </mxCell>
        <mxCell id="8JXVpkGtq3ozPLFijZap-11" style="edgeStyle=orthogonalEdgeStyle;rounded=0;orthogonalLoop=1;jettySize=auto;html=1;exitX=0;exitY=0.5;exitDx=0;exitDy=0;" parent="1" source="g6cFerPWCfS_38igkbu9-3" edge="1">
          <mxGeometry relative="1" as="geometry">
            <mxPoint x="490" y="110" as="targetPoint" />
            <Array as="points">
              <mxPoint x="520" y="110" />
              <mxPoint x="520" y="110" />
            </Array>
          </mxGeometry>
        </mxCell>
        <mxCell id="8JXVpkGtq3ozPLFijZap-2" value="Dynamically&lt;div&gt;generate&lt;/div&gt;&lt;div&gt;page content&lt;/div&gt;" style="shape=process;whiteSpace=wrap;html=1;backgroundOutline=1;" parent="1" vertex="1">
          <mxGeometry x="530" y="170" width="120" height="60" as="geometry" />
        </mxCell>
        <mxCell id="8JXVpkGtq3ozPLFijZap-3" value="" style="edgeStyle=orthogonalEdgeStyle;rounded=0;orthogonalLoop=1;jettySize=auto;html=1;" parent="1" source="OECzW251QmUKb57PSqsv-26" edge="1">
          <mxGeometry relative="1" as="geometry">
            <mxPoint x="531" y="220" as="targetPoint" />
            <Array as="points">
              <mxPoint x="531" y="220" />
            </Array>
          </mxGeometry>
        </mxCell>
        <mxCell id="8JXVpkGtq3ozPLFijZap-10" style="edgeStyle=orthogonalEdgeStyle;rounded=0;orthogonalLoop=1;jettySize=auto;html=1;entryX=1;entryY=0.5;entryDx=0;entryDy=0;" parent="1" source="8JXVpkGtq3ozPLFijZap-7" target="g6cFerPWCfS_38igkbu9-3" edge="1">
          <mxGeometry relative="1" as="geometry" />
        </mxCell>
        <mxCell id="OECzW251QmUKb57PSqsv-30" style="edgeStyle=orthogonalEdgeStyle;rounded=0;orthogonalLoop=1;jettySize=auto;html=1;" parent="1" source="h8j7d9lZvAG6Qlfk2w60-28" edge="1">
          <mxGeometry relative="1" as="geometry">
            <mxPoint x="790" y="440" as="targetPoint" />
            <Array as="points">
              <mxPoint x="790" y="440" />
            </Array>
          </mxGeometry>
        </mxCell>
        <mxCell id="g6cFerPWCfS_38igkbu9-3" value="Dynamically&lt;div&gt;generate&lt;/div&gt;&lt;div&gt;page content&lt;/div&gt;" style="shape=process;whiteSpace=wrap;html=1;backgroundOutline=1;" parent="1" vertex="1">
          <mxGeometry x="530" y="80" width="120" height="60" as="geometry" />
        </mxCell>
        <mxCell id="HVfkcYdauQG6CCqCgE7G-1" value="localStorage&lt;div&gt;.setItem&lt;/div&gt;&lt;div&gt;JSON.stringify&lt;/div&gt;" style="whiteSpace=wrap;html=1;fontFamily=Verdana;rounded=0;shadow=0;comic=0;labelBackgroundColor=none;strokeWidth=2;" parent="1" vertex="1">
          <mxGeometry x="50" y="770" width="120" height="60" as="geometry" />
        </mxCell>
        <mxCell id="HVfkcYdauQG6CCqCgE7G-6" value="" style="edgeStyle=orthogonalEdgeStyle;rounded=0;orthogonalLoop=1;jettySize=auto;html=1;entryX=0.5;entryY=1;entryDx=0;entryDy=0;" parent="1" source="HVfkcYdauQG6CCqCgE7G-1" target="HVfkcYdauQG6CCqCgE7G-4" edge="1">
          <mxGeometry relative="1" as="geometry" />
        </mxCell>
        <mxCell id="HVfkcYdauQG6CCqCgE7G-4" value="onload&lt;div&gt;.getItem&lt;/div&gt;" style="shape=parallelogram;perimeter=parallelogramPerimeter;whiteSpace=wrap;html=1;fixedSize=1;fontFamily=Verdana;rounded=0;shadow=0;comic=0;labelBackgroundColor=none;strokeWidth=2;" parent="1" vertex="1">
          <mxGeometry x="230" y="750" width="120" height="60" as="geometry" />
        </mxCell>
        <mxCell id="HVfkcYdauQG6CCqCgE7G-7" style="edgeStyle=orthogonalEdgeStyle;rounded=0;orthogonalLoop=1;jettySize=auto;html=1;entryX=0.759;entryY=1.06;entryDx=0;entryDy=0;entryPerimeter=0;exitX=0.5;exitY=0;exitDx=0;exitDy=0;" parent="1" source="HVfkcYdauQG6CCqCgE7G-4" target="21ea969265ad0168-30" edge="1">
          <mxGeometry relative="1" as="geometry">
            <Array as="points">
              <mxPoint x="290" y="740" />
              <mxPoint x="143" y="740" />
              <mxPoint x="143" y="673" />
            </Array>
            <mxPoint x="142.94000000000005" y="729" as="targetPoint" />
          </mxGeometry>
        </mxCell>
      </root>
    </mxGraphModel>
  </diagram>
</mxfile>
